<svg id="ic_record_voice_over_24px" xmlns="http://www.w3.org/2000/svg" width="52.002" height="44.913" viewBox="0 0 52.002 44.913">
  <circle id="Ellipse_3" data-name="Ellipse 3" cx="9.5" cy="9.5" r="9.5" transform="translate(8.403 6.918)" fill="#bacdef"/>
  <path id="Path_3" data-name="Path 3" d="M19.911,32.73C13.6,32.73,1,35.9,1,42.185v4.728H38.822V42.185C38.822,35.9,26.222,32.73,19.911,32.73ZM38.254,9.943l-3.971,3.995a7.842,7.842,0,0,1,0,9.2l3.971,3.995c4.775-4.775,4.775-11.985,0-17.185ZM46.079,2,42.225,5.853c6.548,7.139,6.548,17.871,0,25.388l3.853,3.853C55.3,25.9,55.321,11.574,46.079,2Z" transform="translate(-1 -2)" fill="#bacdef"/>
</svg>
