<svg xmlns="http://www.w3.org/2000/svg" width="109.834" height="91.529" viewBox="0 0 109.834 91.529">
  <path id="ic_perm_media_24px" d="M9.153,20.306H0V43.188H.046L0,84.376a9.18,9.18,0,0,0,9.153,9.153H91.529V84.376H9.153Zm91.529-9.153H64.07L54.917,2H27.459a9.141,9.141,0,0,0-9.107,9.153L18.306,66.07a9.18,9.18,0,0,0,9.153,9.153h73.223a9.18,9.18,0,0,0,9.153-9.153V20.306A9.18,9.18,0,0,0,100.681,11.153ZM32.035,61.494,52.629,34.035l16.018,20.64L80.088,40.9,96.105,61.494Z" transform="translate(0 -2)" fill="#91abd9"/>
</svg>
